<svg xmlns="http://www.w3.org/2000/svg" width="141.208" height="141.213" viewBox="0 0 141.208 141.213"><path d="M150.915,30.309a7.761,7.761,0,0,0-7.728-1.961L17.711,66.367a7.846,7.846,0,0,0-1.229,14.646l55.974,26.513a2.615,2.615,0,0,1,1.249,1.242l26.513,55.981a7.767,7.767,0,0,0,7.068,4.485h.654a7.774,7.774,0,0,0,6.878-5.643L152.877,38.057V38a7.748,7.748,0,0,0-1.961-7.7Zm-3.021,6.238L109.822,162.081a2.615,2.615,0,0,1-4.878.412L78.432,106.532l32.195-32.188a2.617,2.617,0,1,0-3.7-3.7L74.731,102.838h0L18.724,76.286a2.537,2.537,0,0,1-1.484-2.615A2.57,2.57,0,0,1,19.2,71.356L144.658,33.342a2.569,2.569,0,0,1,.719-.1,2.615,2.615,0,0,1,1.824.778A2.57,2.57,0,0,1,147.895,36.546Z" transform="translate(-11.989 -28.021)"/></svg>